<mxfile host="65bd71144e">
    <diagram id="JFFtvGdBms1kCDurncL_" name="Page-1">
        <mxGraphModel grid="1" gridSize="10" guides="1" tooltips="1" connect="1" arrows="1" page="1" fold="1" pageScale="1" pageWidth="850" pageHeight="1100" math="0" shadow="0">
            <root>
                <mxCell id="0"/>
                <mxCell id="1" parent="0"/>
                <mxCell id="7" value="Event" style="swimlane;fontStyle=1;align=center;verticalAlign=top;childLayout=stackLayout;horizontal=1;startSize=26;horizontalStack=0;resizeParent=1;resizeParentMax=0;resizeLast=0;collapsible=1;marginBottom=0;fontSize=14;" parent="1" vertex="1">
                    <mxGeometry x="40" y="190" width="230" height="530" as="geometry"/>
                </mxCell>
                <mxCell id="8" value="- eventID: event&#10;- instituionID: int&#10;- title: String&#10;- description: String&#10;-Â  englishLocation: String&#10;- mapLocation: Location&#10;- fromDate: Date&#10;- toDate: Date&#10;- fromWorkingHour: LocalTime&#10;- toWorkingHour: LocalTime&#10;" style="text;strokeColor=none;fillColor=none;align=left;verticalAlign=top;spacingLeft=4;spacingRight=4;overflow=hidden;rotatable=0;points=[[0,0.5],[1,0.5]];portConstraint=eastwest;fontSize=14;" parent="7" vertex="1">
                    <mxGeometry y="26" width="230" height="194" as="geometry"/>
                </mxCell>
                <mxCell id="9" value="" style="line;strokeWidth=1;fillColor=none;align=left;verticalAlign=middle;spacingTop=-1;spacingLeft=3;spacingRight=3;rotatable=0;labelPosition=right;points=[];portConstraint=eastwest;" parent="7" vertex="1">
                    <mxGeometry y="220" width="230" height="20" as="geometry"/>
                </mxCell>
                <mxCell id="10" value="+ setTitle(String)&#10;+ getTitle(): String&#10;+ setDescription(String)&#10;+ getDescription(): String&#10;+ setEnglishLocation(String)&#10;+ getEnglishLocation(): String&#10;+ setMapLocation(Location)&#10;+ getMapLocation(): String&#10;+ setFromDate(Date)&#10;+ getFromDate(): Date&#10;+ setToDate(Date)&#10;+ getToDate(): Date&#10;+ setFromWorkingHour(LocalTime)&#10;+ getFromWorkingHour(): LocatTime&#10;+ setToWokringHour(LocalTIme)&#10;+ getToWorkingHour(): LocalTIme&#10;" style="text;strokeColor=none;fillColor=none;align=left;verticalAlign=top;spacingLeft=4;spacingRight=4;overflow=hidden;rotatable=0;points=[[0,0.5],[1,0.5]];portConstraint=eastwest;fontSize=14;" vertex="1" parent="7">
                    <mxGeometry y="240" width="230" height="290" as="geometry"/>
                </mxCell>
                <mxCell id="81" style="edgeStyle=none;html=1;exitX=0.5;exitY=0;exitDx=0;exitDy=0;entryX=0.448;entryY=1.012;entryDx=0;entryDy=0;entryPerimeter=0;" edge="1" parent="1" source="53" target="78">
                    <mxGeometry relative="1" as="geometry"/>
                </mxCell>
                <mxCell id="53" value="EventService" style="swimlane;fontStyle=1;align=center;verticalAlign=top;childLayout=stackLayout;horizontal=1;startSize=26;horizontalStack=0;resizeParent=1;resizeParentMax=0;resizeLast=0;collapsible=1;marginBottom=0;fontSize=14;" parent="1" vertex="1">
                    <mxGeometry x="370" y="260" width="390" height="190" as="geometry"/>
                </mxCell>
                <mxCell id="54" value="- eventDao: EventDao" style="text;strokeColor=none;fillColor=none;align=left;verticalAlign=top;spacingLeft=4;spacingRight=4;overflow=hidden;rotatable=0;points=[[0,0.5],[1,0.5]];portConstraint=eastwest;fontSize=14;" parent="53" vertex="1">
                    <mxGeometry y="26" width="390" height="44" as="geometry"/>
                </mxCell>
                <mxCell id="55" value="" style="line;strokeWidth=1;fillColor=none;align=left;verticalAlign=middle;spacingTop=-1;spacingLeft=3;spacingRight=3;rotatable=0;labelPosition=right;points=[];portConstraint=eastwest;fontSize=14;" parent="53" vertex="1">
                    <mxGeometry y="70" width="390" height="8" as="geometry"/>
                </mxCell>
                <mxCell id="56" value="+ createEvent(event: Event): int&#10;+ updateEvent(event: Event): boolean&#10;+ deleteEvent(ID: eventID): boolean&#10;+ getUserEvents (UserID: int, location: Location): List&lt;Event&gt;&#10;+ getInstitionEvents(InstituionID: int): List&lt;Event&gt;" style="text;strokeColor=none;fillColor=none;align=left;verticalAlign=top;spacingLeft=4;spacingRight=4;overflow=hidden;rotatable=0;points=[[0,0.5],[1,0.5]];portConstraint=eastwest;fontSize=14;" parent="53" vertex="1">
                    <mxGeometry y="78" width="390" height="112" as="geometry"/>
                </mxCell>
                <mxCell id="64" value="&lt;&lt;interface&gt;&gt;&#10;EventDao" style="swimlane;fontStyle=1;align=center;verticalAlign=middle;childLayout=stackLayout;horizontal=1;startSize=30;horizontalStack=0;resizeParent=1;resizeParentMax=0;resizeLast=0;collapsible=1;marginBottom=0;" parent="1" vertex="1">
                    <mxGeometry x="850" y="330" width="300" height="150" as="geometry"/>
                </mxCell>
                <mxCell id="65" value="" style="line;strokeWidth=1;fillColor=none;align=left;verticalAlign=middle;spacingTop=-1;spacingLeft=3;spacingRight=3;rotatable=0;labelPosition=right;points=[];portConstraint=eastwest;" parent="64" vertex="1">
                    <mxGeometry y="30" width="300" height="10" as="geometry"/>
                </mxCell>
                <mxCell id="66" value="+ createEvent(event: Event): int&#10;+ updateEvent(event: Event): boolean&#10;+ deleteEvent(eventID: int): boolean&#10;+ getUserEvents(UserID: int): List&lt;Event&gt;&#10;+ getInstitutionEvents(InstitutionID: int): List&lt;Event&gt;&#10;+ getEvent(eventID: int): Event&#10;" style="text;strokeColor=none;fillColor=none;align=left;verticalAlign=top;spacingLeft=4;spacingRight=4;overflow=hidden;rotatable=0;points=[[0,0.5],[1,0.5]];portConstraint=eastwest;" parent="64" vertex="1">
                    <mxGeometry y="40" width="300" height="110" as="geometry"/>
                </mxCell>
                <mxCell id="75" value="Instituion" style="swimlane;fontStyle=1;align=center;verticalAlign=top;childLayout=stackLayout;horizontal=1;startSize=26;horizontalStack=0;resizeParent=1;resizeParentMax=0;resizeLast=0;collapsible=1;marginBottom=0;fontSize=18;" parent="1" vertex="1">
                    <mxGeometry x="470" y="20" width="160" height="190" as="geometry"/>
                </mxCell>
                <mxCell id="79" value="-ID" style="text;strokeColor=none;fillColor=none;align=left;verticalAlign=middle;spacingLeft=4;spacingRight=4;overflow=hidden;points=[[0,0.5],[1,0.5]];portConstraint=eastwest;rotatable=0;" parent="75" vertex="1">
                    <mxGeometry y="26" width="160" height="30" as="geometry"/>
                </mxCell>
                <mxCell id="80" value="-eventService:EventService" style="text;html=1;strokeColor=none;fillColor=none;align=left;verticalAlign=middle;whiteSpace=wrap;rounded=0;" parent="75" vertex="1">
                    <mxGeometry y="56" width="160" height="30" as="geometry"/>
                </mxCell>
                <mxCell id="77" value="" style="line;strokeWidth=1;fillColor=none;align=left;verticalAlign=middle;spacingTop=-1;spacingLeft=3;spacingRight=3;rotatable=0;labelPosition=right;points=[];portConstraint=eastwest;fontSize=18;" parent="75" vertex="1">
                    <mxGeometry y="86" width="160" height="54" as="geometry"/>
                </mxCell>
                <mxCell id="78" value="+CreateEvent():boolean&#10;+editEvent():boolean" style="text;strokeColor=none;fillColor=none;align=left;verticalAlign=top;spacingLeft=4;spacingRight=4;overflow=hidden;rotatable=0;points=[[0,0.5],[1,0.5]];portConstraint=eastwest;fontSize=12;" parent="75" vertex="1">
                    <mxGeometry y="140" width="160" height="50" as="geometry"/>
                </mxCell>
                <mxCell id="105" value="&lt;&lt;interface&gt;&gt;&#10;TransactionDao" style="swimlane;fontStyle=1;align=center;verticalAlign=middle;childLayout=stackLayout;horizontal=1;startSize=26;horizontalStack=0;resizeParent=1;resizeParentMax=0;resizeLast=0;collapsible=1;marginBottom=0;" parent="1" vertex="1">
                    <mxGeometry x="1060" y="790" width="310" height="90" as="geometry"/>
                </mxCell>
                <mxCell id="106" value="" style="line;strokeWidth=1;fillColor=none;align=left;verticalAlign=middle;spacingTop=-1;spacingLeft=3;spacingRight=3;rotatable=0;labelPosition=right;points=[];portConstraint=eastwest;" parent="105" vertex="1">
                    <mxGeometry y="26" width="310" height="8" as="geometry"/>
                </mxCell>
                <mxCell id="107" value="+ createTransaction(transaction: Transaction)&#10;+ updateLastDonatedTime(UserID: int): boolean&#10;+ updateNoOfBags(donorID: int) // user or instit." style="text;strokeColor=none;fillColor=none;align=left;verticalAlign=top;spacingLeft=4;spacingRight=4;overflow=hidden;rotatable=0;points=[[0,0.5],[1,0.5]];portConstraint=eastwest;" parent="105" vertex="1">
                    <mxGeometry y="34" width="310" height="56" as="geometry"/>
                </mxCell>
                <mxCell id="112" style="edgeStyle=none;html=1;exitX=0;exitY=0.5;exitDx=0;exitDy=0;entryX=0.999;entryY=0.061;entryDx=0;entryDy=0;entryPerimeter=0;fontSize=18;" edge="1" parent="1" source="56" target="10">
                    <mxGeometry relative="1" as="geometry"/>
                </mxCell>
                <mxCell id="126" style="edgeStyle=none;html=1;exitX=0;exitY=0.5;exitDx=0;exitDy=0;fontSize=14;endArrow=none;endFill=0;" parent="1" source="66" target="56" edge="1">
                    <mxGeometry relative="1" as="geometry"/>
                </mxCell>
                <mxCell id="142" value="Tansaction" style="swimlane;fontStyle=0;childLayout=stackLayout;horizontal=1;startSize=26;fillColor=none;horizontalStack=0;resizeParent=1;resizeParentMax=0;resizeLast=0;collapsible=1;marginBottom=0;fontSize=14;" parent="1" vertex="1">
                    <mxGeometry x="200" y="850" width="290" height="110" as="geometry"/>
                </mxCell>
                <mxCell id="145" value="- from(donor id) : intÂ &#10;- instituion: instituionID&#10;- to(reciepient id) : int&#10;- timeOfTransaction: Time&#10;" style="text;strokeColor=none;fillColor=none;align=left;verticalAlign=top;spacingLeft=4;spacingRight=4;overflow=hidden;rotatable=0;points=[[0,0.5],[1,0.5]];portConstraint=eastwest;fontSize=14;" parent="142" vertex="1">
                    <mxGeometry y="26" width="290" height="84" as="geometry"/>
                </mxCell>
                <mxCell id="154" value="TransactionService" style="swimlane;fontStyle=1;align=center;verticalAlign=top;childLayout=stackLayout;horizontal=1;startSize=26;horizontalStack=0;resizeParent=1;resizeParentMax=0;resizeLast=0;collapsible=1;marginBottom=0;fontSize=14;" parent="1" vertex="1">
                    <mxGeometry x="650" y="830" width="279" height="188" as="geometry"/>
                </mxCell>
                <mxCell id="155" value="- transactionDao: TransactionDao&#10;" style="text;strokeColor=none;fillColor=none;align=left;verticalAlign=top;spacingLeft=4;spacingRight=4;overflow=hidden;rotatable=0;points=[[0,0.5],[1,0.5]];portConstraint=eastwest;fontSize=14;" parent="154" vertex="1">
                    <mxGeometry y="26" width="279" height="34" as="geometry"/>
                </mxCell>
                <mxCell id="156" value="" style="line;strokeWidth=1;fillColor=none;align=left;verticalAlign=middle;spacingTop=-1;spacingLeft=3;spacingRight=3;rotatable=0;labelPosition=right;points=[];portConstraint=eastwest;fontSize=14;" parent="154" vertex="1">
                    <mxGeometry y="60" width="279" height="8" as="geometry"/>
                </mxCell>
                <mxCell id="157" value="+ createEvent(ID: int // instit.ID)&#10;+ deleteEvent(ID: eventID)&#10;+ modifyEventLoc(englishLoc: String)&#10;+ modifyEventPeriod(startTime: Date, &#10;Â  Â endTime: Date)&#10;" style="text;strokeColor=none;fillColor=none;align=left;verticalAlign=top;spacingLeft=4;spacingRight=4;overflow=hidden;rotatable=0;points=[[0,0.5],[1,0.5]];portConstraint=eastwest;fontSize=14;" parent="154" vertex="1">
                    <mxGeometry y="68" width="279" height="120" as="geometry"/>
                </mxCell>
                <mxCell id="T5lEegtDsJeZQ5K3YUQ6-157" style="edgeStyle=none;html=1;exitX=0;exitY=0.5;exitDx=0;exitDy=0;entryX=1;entryY=0.5;entryDx=0;entryDy=0;fontSize=14;endArrow=classic;endFill=1;" edge="1" parent="1" source="155" target="145">
                    <mxGeometry relative="1" as="geometry"/>
                </mxCell>
                <mxCell id="T5lEegtDsJeZQ5K3YUQ6-162" style="edgeStyle=none;html=1;exitX=1;exitY=0.5;exitDx=0;exitDy=0;entryX=0;entryY=0.75;entryDx=0;entryDy=0;fontSize=14;endArrow=none;endFill=0;" parent="1" source="155" target="105" edge="1">
                    <mxGeometry relative="1" as="geometry"/>
                </mxCell>
            </root>
        </mxGraphModel>
    </diagram>
    <diagram id="mxBNa6fx7uLhi-VjpEai" name="CRC">
        <mxGraphModel dx="820" dy="549" grid="1" gridSize="10" guides="1" tooltips="1" connect="1" arrows="1" fold="1" page="1" pageScale="1" pageWidth="850" pageHeight="1100" math="0" shadow="0">
            <root>
                <mxCell id="SCy3Kb6sFU_jo6mRdR9g-0"/>
                <mxCell id="SCy3Kb6sFU_jo6mRdR9g-1" parent="SCy3Kb6sFU_jo6mRdR9g-0"/>
                <mxCell id="MTPK1X4yMHL3GJOz_C7F-0" value="UserParser" style="shape=table;startSize=30;container=1;collapsible=1;childLayout=tableLayout;fixedRows=1;rowLines=0;fontStyle=1;align=center;resizeLast=1;" parent="SCy3Kb6sFU_jo6mRdR9g-1" vertex="1">
                    <mxGeometry x="260" y="290" width="180" height="180" as="geometry"/>
                </mxCell>
                <mxCell id="MTPK1X4yMHL3GJOz_C7F-1" value="" style="shape=tableRow;horizontal=0;startSize=0;swimlaneHead=0;swimlaneBody=0;fillColor=none;collapsible=0;dropTarget=0;points=[[0,0.5],[1,0.5]];portConstraint=eastwest;top=0;left=0;right=0;bottom=1;" parent="MTPK1X4yMHL3GJOz_C7F-0" vertex="1">
                    <mxGeometry y="30" width="180" height="30" as="geometry"/>
                </mxCell>
                <mxCell id="MTPK1X4yMHL3GJOz_C7F-2" value="Attributes" style="shape=partialRectangle;connectable=0;fillColor=none;top=0;left=0;bottom=0;right=0;fontStyle=1;overflow=hidden;" parent="MTPK1X4yMHL3GJOz_C7F-1" vertex="1">
                    <mxGeometry width="70" height="30" as="geometry">
                        <mxRectangle width="70" height="30" as="alternateBounds"/>
                    </mxGeometry>
                </mxCell>
                <mxCell id="MTPK1X4yMHL3GJOz_C7F-3" value="Collaborations" style="shape=partialRectangle;connectable=0;fillColor=none;top=0;left=0;bottom=0;right=0;align=left;spacingLeft=6;fontStyle=1;overflow=hidden;" parent="MTPK1X4yMHL3GJOz_C7F-1" vertex="1">
                    <mxGeometry x="70" width="110" height="30" as="geometry">
                        <mxRectangle width="110" height="30" as="alternateBounds"/>
                    </mxGeometry>
                </mxCell>
                <mxCell id="MTPK1X4yMHL3GJOz_C7F-4" value="" style="shape=tableRow;horizontal=0;startSize=0;swimlaneHead=0;swimlaneBody=0;fillColor=none;collapsible=0;dropTarget=0;points=[[0,0.5],[1,0.5]];portConstraint=eastwest;top=0;left=0;right=0;bottom=0;" parent="MTPK1X4yMHL3GJOz_C7F-0" vertex="1">
                    <mxGeometry y="60" width="180" height="30" as="geometry"/>
                </mxCell>
                <mxCell id="MTPK1X4yMHL3GJOz_C7F-5" value="Gson" style="shape=partialRectangle;connectable=0;fillColor=none;top=0;left=0;bottom=0;right=0;editable=1;overflow=hidden;" parent="MTPK1X4yMHL3GJOz_C7F-4" vertex="1">
                    <mxGeometry width="70" height="30" as="geometry">
                        <mxRectangle width="70" height="30" as="alternateBounds"/>
                    </mxGeometry>
                </mxCell>
                <mxCell id="MTPK1X4yMHL3GJOz_C7F-6" value="User" style="shape=partialRectangle;connectable=0;fillColor=none;top=0;left=0;bottom=0;right=0;align=left;spacingLeft=6;overflow=hidden;" parent="MTPK1X4yMHL3GJOz_C7F-4" vertex="1">
                    <mxGeometry x="70" width="110" height="30" as="geometry">
                        <mxRectangle width="110" height="30" as="alternateBounds"/>
                    </mxGeometry>
                </mxCell>
                <mxCell id="MTPK1X4yMHL3GJOz_C7F-7" value="" style="shape=tableRow;horizontal=0;startSize=0;swimlaneHead=0;swimlaneBody=0;fillColor=none;collapsible=0;dropTarget=0;points=[[0,0.5],[1,0.5]];portConstraint=eastwest;top=0;left=0;right=0;bottom=0;" parent="MTPK1X4yMHL3GJOz_C7F-0" vertex="1">
                    <mxGeometry y="90" width="180" height="30" as="geometry"/>
                </mxCell>
                <mxCell id="MTPK1X4yMHL3GJOz_C7F-8" value="" style="shape=partialRectangle;connectable=0;fillColor=none;top=0;left=0;bottom=0;right=0;editable=1;overflow=hidden;" parent="MTPK1X4yMHL3GJOz_C7F-7" vertex="1">
                    <mxGeometry width="70" height="30" as="geometry">
                        <mxRectangle width="70" height="30" as="alternateBounds"/>
                    </mxGeometry>
                </mxCell>
                <mxCell id="MTPK1X4yMHL3GJOz_C7F-9" value="UserValidator" style="shape=partialRectangle;connectable=0;fillColor=none;top=0;left=0;bottom=0;right=0;align=left;spacingLeft=6;overflow=hidden;" parent="MTPK1X4yMHL3GJOz_C7F-7" vertex="1">
                    <mxGeometry x="70" width="110" height="30" as="geometry">
                        <mxRectangle width="110" height="30" as="alternateBounds"/>
                    </mxGeometry>
                </mxCell>
                <mxCell id="hnCfbNWegS8PAHl5CHGh-1" value="" style="shape=partialRectangle;collapsible=0;dropTarget=0;pointerEvents=0;fillColor=none;top=0;left=0;bottom=0;right=0;points=[[0,0.5],[1,0.5]];portConstraint=eastwest;fontSize=11;" parent="MTPK1X4yMHL3GJOz_C7F-0" vertex="1">
                    <mxGeometry y="120" width="180" height="30" as="geometry"/>
                </mxCell>
                <mxCell id="hnCfbNWegS8PAHl5CHGh-2" value="" style="shape=partialRectangle;connectable=0;fillColor=none;top=0;left=0;bottom=0;right=0;editable=1;overflow=hidden;fontSize=11;" parent="hnCfbNWegS8PAHl5CHGh-1" vertex="1">
                    <mxGeometry width="70" height="30" as="geometry">
                        <mxRectangle width="70" height="30" as="alternateBounds"/>
                    </mxGeometry>
                </mxCell>
                <mxCell id="hnCfbNWegS8PAHl5CHGh-3" value="Row" style="shape=partialRectangle;connectable=0;fillColor=none;top=0;left=0;bottom=0;right=0;align=left;spacingLeft=6;overflow=hidden;fontSize=11;" parent="hnCfbNWegS8PAHl5CHGh-1" vertex="1">
                    <mxGeometry x="70" width="110" height="30" as="geometry">
                        <mxRectangle width="110" height="30" as="alternateBounds"/>
                    </mxGeometry>
                </mxCell>
                <mxCell id="MTPK1X4yMHL3GJOz_C7F-10" value="" style="shape=tableRow;horizontal=0;startSize=0;swimlaneHead=0;swimlaneBody=0;fillColor=none;collapsible=0;dropTarget=0;points=[[0,0.5],[1,0.5]];portConstraint=eastwest;top=0;left=0;right=0;bottom=0;" parent="MTPK1X4yMHL3GJOz_C7F-0" vertex="1">
                    <mxGeometry y="150" width="180" height="30" as="geometry"/>
                </mxCell>
                <mxCell id="MTPK1X4yMHL3GJOz_C7F-11" value="" style="shape=partialRectangle;connectable=0;fillColor=none;top=0;left=0;bottom=0;right=0;editable=1;overflow=hidden;" parent="MTPK1X4yMHL3GJOz_C7F-10" vertex="1">
                    <mxGeometry width="70" height="30" as="geometry">
                        <mxRectangle width="70" height="30" as="alternateBounds"/>
                    </mxGeometry>
                </mxCell>
                <mxCell id="MTPK1X4yMHL3GJOz_C7F-12" value="UserRegisterer" style="shape=partialRectangle;connectable=0;fillColor=none;top=0;left=0;bottom=0;right=0;align=left;spacingLeft=6;overflow=hidden;" parent="MTPK1X4yMHL3GJOz_C7F-10" vertex="1">
                    <mxGeometry x="70" width="110" height="30" as="geometry">
                        <mxRectangle width="110" height="30" as="alternateBounds"/>
                    </mxGeometry>
                </mxCell>
            </root>
        </mxGraphModel>
    </diagram>
    <diagram id="1_JVx6NQcP4Yt9ob2DBl" name="ACtivity">
        <mxGraphModel grid="1" gridSize="10" guides="1" tooltips="1" connect="1" arrows="1" page="1" fold="1" pageScale="1" pageWidth="850" pageHeight="1100" math="0" shadow="0">
            <root>
                <mxCell id="aDghzlmtOEEkzEwvL-jS-0"/>
                <mxCell id="aDghzlmtOEEkzEwvL-jS-1" parent="aDghzlmtOEEkzEwvL-jS-0"/>
                <mxCell id="tt-pMoA_5IqYp2kbDNKd-2" value="&lt;span style=&quot;font-size: 18px ; font-weight: 700&quot;&gt;Instituion&lt;/span&gt;" style="shape=umlLifeline;perimeter=lifelinePerimeter;whiteSpace=wrap;html=1;container=1;collapsible=0;recursiveResize=0;outlineConnect=0;fontSize=12;" parent="aDghzlmtOEEkzEwvL-jS-1" vertex="1">
                    <mxGeometry x="280" y="300" width="100" height="300" as="geometry"/>
                </mxCell>
                <mxCell id="tt-pMoA_5IqYp2kbDNKd-6" value="" style="html=1;points=[];perimeter=orthogonalPerimeter;fontSize=12;" parent="tt-pMoA_5IqYp2kbDNKd-2" vertex="1">
                    <mxGeometry x="45" y="80" width="10" height="170" as="geometry"/>
                </mxCell>
                <mxCell id="tt-pMoA_5IqYp2kbDNKd-4" value="Accept event&amp;nbsp;" style="shape=umlLifeline;perimeter=lifelinePerimeter;whiteSpace=wrap;html=1;container=1;collapsible=0;recursiveResize=0;outlineConnect=0;fontSize=12;" parent="aDghzlmtOEEkzEwvL-jS-1" vertex="1">
                    <mxGeometry x="470" y="300" width="100" height="300" as="geometry"/>
                </mxCell>
                <mxCell id="Gj6sqKOXDR0qHtFvYXJQ-0" value="" style="html=1;points=[];perimeter=orthogonalPerimeter;fontSize=12;" parent="tt-pMoA_5IqYp2kbDNKd-4" vertex="1">
                    <mxGeometry x="45" y="80" width="10" height="170" as="geometry"/>
                </mxCell>
                <mxCell id="RF_INsVU_Fu4TSAUK-xB-0" value=":Object" style="shape=umlLifeline;perimeter=lifelinePerimeter;whiteSpace=wrap;html=1;container=1;collapsible=0;recursiveResize=0;outlineConnect=0;fontSize=12;" parent="aDghzlmtOEEkzEwvL-jS-1" vertex="1">
                    <mxGeometry x="600" y="290" width="100" height="300" as="geometry"/>
                </mxCell>
            </root>
        </mxGraphModel>
    </diagram>
</mxfile>